# AST/ASF file generated using VICON BodyLanguage
# -----------------------------------------------
:version 1.10
:name VICON
:units
  mass 1.0
  length 0.45
  angle deg
:documentation
   .ast/.asf automatically generated from VICON data using
   VICON BodyBuilder and BodyLanguage model FoxedUp or BRILLIANT.MOD
:root
   order TX TY TZ RX RY RZ
   axis XYZ
   position 0 0 0  
   orientation 0 0 0 
:bonedata
  begin
     id 1 
     name lhipjoint
     direction 0.57768 -0.667037 0.470475 
     length 2.36008 
     axis 0 0 0  XYZ
  end
  begin
     id 2 
     name lfemur
     direction 0.34202 -0.939693 0  
     length 6.97235  
     axis 0 0 20  XYZ
    dof rx ry rz
    limits (-160.0 20.0)
           (-70.0 70.0)
           (-60.0 70.0)
  end
  begin
     id 3 
     name ltibia
     direction 0.34202 -0.939693 0   
     length 6.93428   
     axis 0 0 20   XYZ
    dof rx
    limits (-10.0 170.0)
  end
  begin
     id 4 
     name lfoot
     direction 0.133018 -0.365463 0.921272   
     length 2.18603   
     axis -90 7.62852e-016 20   XYZ
    dof rx rz
    limits (-45.0 90.0)
           (-70.0 20.0)
  end
  begin
     id 5 
     name ltoes
     direction 1.53519e-011 -4.22055e-011 1   
     length 1.07924   
     axis -90 7.62852e-016 20   XYZ
    dof rx
    limits (-90.0 20.0)
  end
  begin
     id 6 
     name rhipjoint
     direction -0.577712 -0.667019 0.470462   
     length 2.36015  
     axis 0 0 0  XYZ 
  end
  begin
     id 7 
     name rfemur
     direction -0.34202 -0.939693 0   
     length 6.71195   
     axis 0 0 -20   XYZ
    dof rx ry rz
    limits (-160.0 20.0)
           (-70.0 70.0)
           (-70.0 60.0)
  end
  begin
     id 8 
     name rtibia
     direction -0.34202 -0.939693 0   
     length 7.04592   
     axis 0 0 -20   XYZ
    dof rx
    limits (-10.0 170.0)
 end
 begin
     id 9 
     name rfoot
     direction -0.113796 -0.312651 0.943027   
     length 2.03846  
     axis -90 -7.62852e-016 -20   XYZ
    dof rx rz
    limits (-45.0 90.0)
           (-20.0 70.0)
  end
  begin
     id 10 
     name rtoes
     direction -1.53586e-011 -4.218e-011 1   
     length 1.01562   
     axis -90 -7.62852e-016 -20   XYZ
    dof rx
    limits (-90.0 20.0)
  end
  begin
     id 11 
     name lowerback
     direction -0.0417299 0.991937 -0.119667   
     length 2.05257   
     axis 0 0 0   XYZ
    dof rx ry rz
    limits (-20.0 45.0)
           (-30.0 30.0)
           (-30.0 30.0)
  end
  begin
     id 12 
     name upperback
     direction -0.00017666 0.999999 0.00105178   
     length 2.05693   
     axis 0 0 0   XYZ
    dof rx ry rz
    limits (-20.0 45.0)
           (-30.0 30.0)
           (-30.0 30.0)
  end
  begin
     id 13 
     name thorax
     direction 0.0185169 0.998203 0.0569866   
     length 2.0932   
     axis 0 0 0   XYZ
    dof rx ry rz
    limits (-20.0 45.0)
           (-30.0 30.0)
           (-30.0 30.0)
  end
  begin
     id 14 
     name lowerneck
     direction -0.0212406 0.982645 0.184277   
     length 1.72509   
     axis 0 0 0   XYZ
    dof rx ry rz
    limits (-20.0 45.0)
           (-30.0 30.0)
           (-30.0 30.0)
  end
  begin
     id 15 
     name upperneck
     direction 0.00528579 0.965323 -0.261004   
     length 1.76294   
     axis 0 0 0   XYZ
    dof rx ry rz
    limits (-20.0 45.0)
           (-30.0 30.0)
           (-30.0 30.0)
  end
  begin
     id 16
     name head
     direction 0.00695421 0.994078 -0.108445  
     length 1.78678  
     axis 0 0 0   XYZ
    dof rx ry rz
    limits (-20.0 45.0)
           (-30.0 30.0)
           (-30.0 30.0)
  end
  begin
     id 17 
     name lclavicle
     direction 0.97277 0.211305 -0.095232  
     length 3.84823  
     axis 0 0 0   XYZ
    dof ry rz
    limits (-20.0 10.0)
           (0.0 20.0)
  end
  begin
     id 18 
     name lhumerus
     direction 1 -4.48957e-011 -1.98313e-027   
     length 4.97185   
     axis 180 -30 -90   XYZ
    dof rx ry rz
    limits (-60.0 90.0)
           (-90.0 90.0)
           (-90.0 90.0)
  end
  begin
     id 19
     name lradius
     direction 1 -4.4898e-011 7.31063e-027   
     length 3.35811   
     axis 180 -30 -90   XYZ
    dof rx
    limits (-10.0 170.0)
  end
  begin
     id 20
     name lwrist
     direction 1 -4.48938e-011 9.95048e-027   
     length 1.67905   
     axis -8.75986e-015 90 90   XYZ
    dof ry
    limits (-180.0 0.0)
 end
  begin
     id 21 
     name lhand
     direction 1 -4.4901e-011 1.9901e-026   
     length 0.622776   
     axis -1.26985e-014 90 90   XYZ
    dof rx rz
    limits (-90.0 90.0)
           (-45.0 45.0)
  end
  begin
     id 22 
     name lfingers
     direction 1 -4.48961e-011 3.98019e-026   
     length 0.502098   
     axis -2.5397e-014 90 90   XYZ
    dof rx
    limits (0.0 90.0)
  end
  begin
     id 23
     name lthumb
     direction 0.707107 -6.34933e-011 0.707107   
     length 0.720915   
     axis -90 45 2.85299e-015   XYZ
    dof rx rz
    limits (-45.0 45.0)
           (-45.0 45.0)
  end
  begin
     id 24 
     name rclavicle
     direction -0.990867 0.133739 -0.0172226   
     length 3.78845  
     axis 0 0 0   XYZ 
    dof ry rz
    limits (-10.0 20.0)
           (-20.0 0.0)
  end
  begin
     id 25 
     name rhumerus
     direction -1 -4.48972e-011 -1.99267e-027  
     length 4.96493   
     axis 180 30 90   XYZ
    dof rx ry rz
    limits (-90.0 60.0)
           (-90.0 90.0)
           (-90.0 90.0)
  end
  begin
     id 26 
     name rradius
     direction -1 -4.48969e-011 8.96093e-027   
     length 3.34929   
     axis 180 30 90   XYZ
    dof rx
    limits (-10.0 170.0)
  end
  begin
     id 27 
     name rwrist
     direction -1 -4.48953e-011 9.95048e-027   
     length 1.67464   
     axis -8.75986e-015 -90 -90   XYZ
    dof ry
    limits (-180.0 0.0)
  end
  begin
     id 28
     name rhand
     direction -1 -4.49001e-011 1.9901e-026   
     length 0.638041   
     axis -1.26985e-014 -90 -90   XYZ
    dof rx rz
    limits (-90.0 90.0)
           (-45.0 45.0)
  end
  begin
     id 29
     name rfingers
     direction -1 -4.48967e-011 3.98019e-026   
     length 0.514405   
     axis -2.5397e-014 -90 -90   XYZ
    dof rx
    limits (0.0 90.0)
  end
  begin
     id 30
     name rthumb
     direction -0.707107 -6.34904e-011 0.707107   
     length 0.738586   
     axis -90 -45 -2.85299e-015   XYZ
    dof rx rz
    limits (-45.0 45.0)
           (-45.0 45.0)
  end
:hierarchy
  begin
    root lhipjoint rhipjoint lowerback
    lhipjoint lfemur
    lfemur ltibia
    ltibia lfoot
    lfoot ltoes
    rhipjoint rfemur
    rfemur rtibia
    rtibia rfoot
    rfoot rtoes
    lowerback upperback
    upperback thorax
    thorax lowerneck lclavicle rclavicle
    lowerneck upperneck
    upperneck head
    lclavicle lhumerus
    lhumerus lradius
    lradius lwrist
    lwrist lhand lthumb
    lhand lfingers
    rclavicle rhumerus
    rhumerus rradius
    rradius rwrist
    rwrist rhand rthumb
    rhand rfingers
  end

#!OML:ASF E:\Mandelcareful walks\Project 1\Capture day 1\Session 1\Subject1.ASF
:FULLY-SPECIFIED
:DEGREES
103
root -2.88582 16.8072 0.126908 162.769 83.6111 160.993
lowerback 4.19355 0.260942 -1.86794
upperback 4.07108 0.385855 0.884087
thorax 1.81668 0.176413 1.94686
lowerneck -22.4365 2.79281 -0.612351
upperneck 35.8462 7.05505 -3.30348
head 16.9369 2.6585 0.212738
rclavicle -1.14301e-014 -3.18055e-015
rhumerus -24.4805 -9.05363 -82.8996
rradius 29.6496
rwrist -8.11367
rhand -9.89674 -31.358
rfingers 7.12502
rthumb 16.0831 -60.7105
lclavicle -1.14301e-014 -3.18055e-015
lhumerus -24.0878 1.66386 86.4671
lradius 26.4085
lwrist 3.43423
lhand -20.495 -11.4408
lfingers 7.12502
lthumb 5.86196 18.4581
rfemur -4.70554 -8.49058 13.7065
rtibia 19.6556
rfoot -17.763 -18.1296
rtoes 2.83703
lfemur -6.9555 -1.3856 -13.6644
ltibia 23.4727
lfoot -17.5952 14.7397
ltoes -3.11453
104
root -2.91916 16.804 0.19095 165.026 83.1784 163.317
lowerback 5.36117 0.169995 -1.21093
upperback 3.98733 0.278403 0.801782
thorax 1.08617 0.149012 1.49116
lowerneck -21.7685 2.76385 -0.497428
upperneck 35.8618 6.97666 -3.28907
head 16.7831 2.67034 0.171203
rclavicle -4.96962e-016 1.43125e-014
rhumerus -24.7654 -8.35801 -83.2598
rradius 30.0304
rwrist -8.87415
rhand -10.1201 -31.939
rfingers 7.12502
rthumb 15.868 -61.3088
lclavicle -4.96962e-016 1.43125e-014
lhumerus -24.3944 1.78968 85.816
lradius 26.7395
lwrist 3.60753
lhand -20.6205 -11.422
lfingers 7.12502
lthumb 5.74072 18.4803
rfemur -4.78538 -8.86908 14.0857
rtibia 19.816
rfoot -17.8496 -18.1251
rtoes 3.02628
lfemur -7.83233 -0.617269 -13.1776
ltibia 24.5054
lfoot -16.8844 13.7299
ltoes -4.40155
105
root -2.95714 16.803 0.258896 165.872 82.6288 164.218
lowerback 5.93695 0.140327 -0.963332
upperback 4.38535 0.267205 0.845746
thorax 1.17819 0.154827 1.39748
lowerneck -21.7825 2.51948 -0.862812
upperneck 35.9111 6.65265 -3.01385
head 16.7738 2.52722 0.289314
rclavicle -9.34288e-015 -5.96354e-015
rhumerus -24.2718 -7.9131 -83.3612
rradius 30.347
rwrist -9.5815
rhand -9.97904 -31.9253
rfingers 7.12502
rthumb 16.0038 -61.2843
lclavicle -9.34288e-015 -5.96354e-015
lhumerus -23.7426 1.98534 85.5078
lradius 26.7582
lwrist 3.8464
lhand -21.0962 -11.6502
lfingers 7.12502
lthumb 5.28142 18.264
rfemur -4.95451 -9.13762 14.3099
rtibia 20.063
rfoot -17.8792 -18.2706
rtoes 3.5485
lfemur -8.87166 0.496433 -12.8929
ltibia 25.6316
lfoot -15.7828 12.6733
ltoes -6.7932
106
root -2.99884 16.8063 0.324803 165.669 82.1262 164.018
lowerback 7.07044 0.0566086 -0.698584
upperback 4.38958 0.175596 0.784752
thorax 0.558293 0.123996 1.18809
lowerneck -21.6589 2.36802 -1.09895
upperneck 36.214 6.48552 -2.78035
head 16.876 2.46542 0.401338
rclavicle -9.93923e-016 4.77083e-015
rhumerus -24.2877 -7.45802 -83.4835
rradius 30.5929
rwrist -9.86047
rhand -9.89915 -31.6677
rfingers 7.12502
rthumb 16.0808 -61.0205
lclavicle -9.93923e-016 4.77083e-015
lhumerus -23.8699 2.05576 85.0623
lradius 27.0497
lwrist 4.31163
lhand -21.4466 -12.1722
lfingers 7.12502
lthumb 4.94312 17.7501
rfemur -5.23374 -9.47 14.3785
rtibia 20.3485
rfoot -17.8839 -18.2667
rtoes 4.21472
lfemur -9.96364 1.78784 -12.8053
ltibia 26.8293
lfoot -14.496 11.6246
ltoes -9.04513
107
root -3.03753 16.809 0.387578 165.85 81.757 164.215
lowerback 7.81396 0.0267301 -0.479861
upperback 4.67348 0.169876 0.900754
thorax 0.441847 0.133026 1.18452
lowerneck -21.761 2.16899 -1.29801
upperneck 36.3321 6.35929 -2.93551
head 16.9654 2.36131 0.345377
rclavicle 1.15295e-014 1.43125e-014
rhumerus -23.7126 -7.01313 -83.3761
rradius 30.4284
rwrist -9.87102
rhand -9.94838 -31.8821
rfingers 7.12502
rthumb 16.0334 -61.2387
lclavicle 1.15295e-014 1.43125e-014
lhumerus -23.5347 2.53656 84.8382
lradius 27.2163
lwrist 4.29829
lhand -21.2086 -12.3576
lfingers 7.12502
lthumb 5.17291 17.5593
rfemur -5.53919 -9.74724 14.5354
rtibia 20.6751
rfoot -17.861 -18.3523
rtoes 4.73412
lfemur -10.9678 2.74181 -12.6512
ltibia 28.019
lfoot -13.4376 10.798
ltoes -9.98039
108
root -3.07286 16.8093 0.44752 165.616 81.4418 164.01
lowerback 8.55958 0.0406565 -0.324643
upperback 4.95512 0.223189 1.03583
thorax 0.32214 0.170913 1.23185
lowerneck -22.0426 1.97559 -1.49153
upperneck 36.5167 6.23406 -3.04999
head 17.1331 2.25793 0.309772
rclavicle 9.93923e-015 -1.66979e-014
rhumerus -23.1566 -6.4525 -83.1803
rradius 30.1864
rwrist -10.2159
rhand -10.3594 -31.2246
rfingers 7.12502
rthumb 15.6375 -60.6126
lclavicle 9.93923e-015 -1.66979e-014
lhumerus -23.1028 3.32698 84.6408
lradius 27.1392
lwrist 3.96944
lhand -20.8049 -12.0407
lfingers 7.12502
lthumb 5.56274 17.8662
rfemur -5.85335 -10.1911 14.6246
rtibia 21.0616
rfoot -17.7784 -18.2763
rtoes 4.85061
lfemur -11.864 3.39891 -12.5445
ltibia 29.1163
lfoot -12.6102 10.1898
ltoes -10.541
109
root -3.10462 16.8098 0.506929 165.273 81.2328 163.692
lowerback 9.19689 0.0556411 -0.0986496
upperback 5.26986 0.285908 1.06617
thorax 0.298249 0.216637 1.13039
lowerneck -22.2904 1.88645 -1.53582
upperneck 36.5995 6.1366 -3.05789
head 17.2371 2.20212 0.298351
rclavicle -9.14409e-015 5.56597e-015
rhumerus -22.6431 -6.03971 -83.1388
rradius 30.5404
rwrist -10.2999
rhand -10.1309 -32.0964
rfingers 7.12502
rthumb 15.8576 -61.467
lclavicle -9.14409e-015 5.56597e-015
lhumerus -22.851 3.78492 84.3702
lradius 27.3317
lwrist 3.9713
lhand -20.7979 -11.9504
lfingers 7.12502
lthumb 5.56948 17.9564
rfemur -6.23258 -10.5289 14.7327
rtibia 21.5739
rfoot -17.8201 -18.0673
rtoes 4.44598
lfemur -12.6478 4.03339 -12.4122
ltibia 30.0551
lfoot -11.8876 9.67716
ltoes -10.8568
110
root -3.13549 16.8096 0.566381 164.52 81.1721 162.892
lowerback 9.82084 0.142729 0.138214
upperback 5.55907 0.44568 0.997459
thorax 0.256262 0.312534 0.910599
lowerneck -22.4294 1.78313 -1.37237
upperneck 36.5117 5.94228 -3.17968
head 17.234 2.1235 0.175271
rclavicle -1.2921e-014 -3.97569e-015
rhumerus -22.1377 -5.96364 -83.1828
rradius 30.7192
rwrist -10.2665
rhand -10.3607 -32.0932
rfingers 7.12502
rthumb 15.6363 -61.4813
lclavicle -1.2921e-014 -3.97569e-015
lhumerus -22.6798 3.86425 84.0608
lradius 27.6538
lwrist 4.12115
lhand -20.8622 -12.1305
lfingers 7.12502
lthumb 5.50741 17.7779
rfemur -6.78513 -10.6344 14.827
rtibia 22.2265
rfoot -17.9779 -17.8988
rtoes 4.60369
lfemur -13.3458 4.63496 -12.2952
ltibia 30.7995
lfoot -11.1839 9.15183
ltoes -11.0073
111
root -3.16716 16.8052 0.622744 161.83 81.1228 160.067
lowerback 10.5465 0.18135 -0.0908792
upperback 5.61381 0.493412 1.00547
thorax -0.0840451 0.337205 1.03895
lowerneck -22.1974 1.72398 -1.51684
upperneck 36.4389 5.95547 -3.29299
head 17.1406 2.10095 0.148998
rclavicle 1.47101e-014 -7.15625e-015
rhumerus -21.9378 -5.4823 -83.0213
rradius 30.7479
rwrist -10.2282
rhand -10.6913 -31.6467
rfingers 7.12502
rthumb 15.3178 -61.0594
lclavicle 1.47101e-014 -7.15625e-015
lhumerus -22.8313 4.51412 83.8304
lradius 27.6474
lwrist 4.07185
lhand -20.755 -11.7259
lfingers 7.12502
lthumb 5.61094 18.1798
rfemur -7.47475 -10.9099 14.5704
rtibia 22.956
rfoot -18.1353 -17.5738
rtoes 5.30503
lfemur -13.932 5.02279 -12.5046
ltibia 31.3444
lfoot -10.5661 8.71262
ltoes -11.2632
